<?xml version="1.0" standalone="no"?>
<!DOCTYPE svg PUBLIC "-//W3C//DTD SVG 1.1//EN" "http://www.w3.org/Graphics/SVG/1.1/DTD/svg11.dtd">
<!--Generator: Xara Designer (www.xara.com), SVG filter version: 6.6.0.7-->
<svg fill="none" fill-rule="evenodd" stroke="black" stroke-width="0.501" stroke-linejoin="bevel" stroke-miterlimit="10" font-family="Times New Roman" font-size="16" style="font-variant-ligatures:none" xmlns:xlink="http://www.w3.org/1999/xlink" xmlns="http://www.w3.org/2000/svg" version="1.1" overflow="visible" width="245.128pt" height="301.297pt" viewBox="75.724 -820.148 245.128 301.297">
 <defs>
  <style type="text/css">@import url('https://themes.googleusercontent.com/fonts/css?family=Open Sans:400,600');</style>
 </defs>
 <g id="Layer 1" transform="scale(1 -1)">
  <g id="Group" fill="#000140" fill-rule="nonzero" stroke-linejoin="round" stroke-linecap="round" stroke="none" stroke-width="8.958">
   <g id="Group_1">
    <path d="M 320.852,556.999 C 310.003,544.631 302.538,536.638 298.457,533.025 C 287.956,523.574 278.51,518.851 270.109,518.851 C 260.195,518.851 243.104,528.885 218.842,548.946 C 192.017,571.227 173.703,584.58 163.903,589.014 C 160.519,590.527 157.2,591.289 153.935,591.289 C 144.837,591.289 132.704,583.59 117.539,568.196 L 117.539,579.041 C 123.024,586.74 128.857,593.215 135.038,598.465 C 116.141,606.279 101.444,618.935 90.943,636.429 C 80.795,653.225 75.719,672.122 75.724,693.12 C 75.719,738.847 96.95,775.242 139.412,802.301 C 158.19,814.201 179.302,820.148 202.747,820.148 C 242.756,820.148 273.373,803.759 294.605,770.982 C 304.752,755.116 309.829,736.279 309.829,714.465 C 309.829,684.49 300.029,657.72 280.431,634.154 C 260.837,610.594 236.286,595.838 206.774,589.89 C 215.408,587.79 228.293,579.623 245.439,565.394 C 262.584,551.161 275.3,544.049 283.581,544.049 C 291.862,544.049 304.285,552.096 320.852,568.196 L 320.852,556.999 Z M 281.132,684.545 C 281.132,705.542 276.469,725.489 267.138,744.386 C 257.224,764.333 243.692,779.552 226.542,790.053 C 210.332,799.967 194.76,804.924 179.829,804.924 C 157.2,804.924 138.825,796.588 124.711,779.905 C 111.413,764.159 104.769,744.794 104.769,721.816 C 104.769,677.955 121.565,643.894 155.159,619.632 C 170.672,608.434 187.817,602.835 206.599,602.835 C 228.642,602.835 246.723,611.062 260.837,627.51 C 274.369,643.142 281.132,662.154 281.132,684.545 Z" marker-start="none" marker-end="none"/>
   </g>
  </g>
  <text xml:space="preserve" transform="translate(109.986 599.29) scale(1 -1)" kerning="auto" fill="#000140" font-size="363.393" stroke-width="9.085" stroke-linejoin="round" stroke-linecap="round" stroke="none" font-family="Andalus"><tspan x="0" y="0">e</tspan></text>
 </g>
</svg>
