<?xml version="1.0" standalone="no"?>
<!DOCTYPE svg PUBLIC "-//W3C//DTD SVG 20010904//EN"
 "http://www.w3.org/TR/2001/REC-SVG-20010904/DTD/svg10.dtd">
<svg version="1.0" xmlns="http://www.w3.org/2000/svg"
 width="700.000000pt" height="700.000000pt" viewBox="0 0 700.000000 700.000000"
 preserveAspectRatio="xMidYMid meet">
<g transform="translate(0.000000,700.000000) scale(0.100000,-0.100000)"
fill="#000000" stroke="none">
<path d="M10 3505 l0 -3495 3495 0 3495 0 0 3495 0 3495 -3495 0 -3495 0 0
-3495z m3930 3359 c581 -67 1056 -303 1436 -714 431 -466 628 -980 627 -1640
-2 -677 -202 -1238 -637 -1780 -96 -119 -321 -344 -446 -445 -326 -263 -678
-438 -1083 -540 l-127 -32 47 -18 c188 -71 427 -227 773 -507 366 -295 580
-430 764 -483 90 -26 200 -17 298 24 138 58 333 198 548 395 l105 96 3 -126 3
-126 -118 -131 c-185 -209 -448 -465 -548 -536 -107 -75 -245 -144 -335 -167
-87 -22 -222 -15 -310 16 -98 34 -261 119 -392 203 -190 122 -334 231 -763
582 -474 387 -844 653 -1027 740 -235 111 -414 79 -695 -121 -80 -57 -247
-201 -318 -273 -27 -28 -53 -51 -57 -51 -4 0 -8 53 -8 117 l0 117 73 95 c39
53 127 152 194 221 67 68 121 125 120 126 -1 1 -57 28 -124 62 -67 33 -161 86
-210 117 -543 352 -902 971 -974 1678 -17 173 -7 544 20 721 60 383 197 742
401 1049 125 187 202 281 374 452 531 530 1133 830 1781 888 121 11 482 6 605
-9z"/>
<path d="M2900 6529 c-423 -43 -781 -233 -1054 -559 -228 -272 -367 -593 -422
-975 -24 -160 -23 -505 0 -705 78 -668 325 -1184 777 -1625 399 -389 794 -591
1263 -646 146 -17 444 -6 571 21 344 73 631 245 863 515 388 452 531 1030 426
1728 -117 783 -535 1486 -1111 1869 -444 295 -881 420 -1313 377z m767 -340
c284 -31 515 -141 713 -339 191 -191 320 -432 384 -720 24 -109 46 -273 46
-340 l0 -30 -1285 0 -1285 0 -2 -97 c-10 -432 47 -733 199 -1038 99 -199 268
-409 422 -525 90 -68 246 -144 361 -176 80 -22 123 -27 265 -31 197 -6 307 11
475 74 268 99 505 266 798 561 l172 174 0 -130 0 -130 -52 -64 c-476 -578
-947 -920 -1409 -1023 -117 -26 -365 -31 -490 -10 -371 62 -679 270 -942 637
-289 405 -396 880 -321 1423 90 647 518 1302 1044 1600 188 107 354 157 615
188 66 8 201 6 292 -4z"/>
<path d="M3075 5923 c-363 -77 -670 -416 -775 -857 -11 -45 -20 -87 -20 -93 0
-10 194 -13 935 -13 920 0 935 0 935 19 0 43 -42 232 -69 312 -59 176 -144
315 -261 429 -114 111 -228 173 -379 205 -91 19 -273 18 -366 -2z"/>
</g>
</svg>
