<?xml version="1.0" standalone="no"?>
<!DOCTYPE svg PUBLIC "-//W3C//DTD SVG 1.1//EN" "http://www.w3.org/Graphics/SVG/1.1/DTD/svg11.dtd">
<!--Generator: Xara Designer (www.xara.com), SVG filter version: 6.6.0.13-->
<svg fill="none" fill-rule="evenodd" stroke="black" stroke-linejoin="bevel" stroke-miterlimit="10" font-family="Times New Roman" font-size="16" style="font-variant-ligatures:none" xmlns:xlink="http://www.w3.org/1999/xlink" xmlns="http://www.w3.org/2000/svg" version="1.1" overflow="visible" width="19pt" height="19pt" viewBox="98.198 -70.159 22.001 22.001">
 <defs>
	</defs>
 <g id="Layer 1" transform="scale(1 -1)" stroke-width="0.501">
  <path d="M 98.198,48.158 L 98.198,70.159 L 98.199,70.159 L 98.199,48.159 L 120.199,48.159 L 120.199,48.158 L 98.198,48.158 Z M 113.715,48.6 C 113.407,48.707 112.895,48.974 112.483,49.239 C 111.885,49.623 111.431,49.967 110.081,51.07 C 108.588,52.289 107.424,53.126 106.848,53.4 C 106.109,53.749 105.546,53.648 104.661,53.019 C 104.409,52.839 103.883,52.386 103.66,52.159 C 103.575,52.071 103.493,51.999 103.481,51.999 C 103.468,51.999 103.455,52.166 103.455,52.367 L 103.455,52.736 L 103.685,53.035 C 103.807,53.202 104.085,53.512 104.296,53.73 C 104.507,53.944 104.677,54.124 104.673,54.126 C 104.67,54.129 104.495,54.214 104.283,54.322 C 104.072,54.426 103.777,54.593 103.622,54.69 C 101.913,55.798 100.783,57.746 100.557,59.97 C 100.503,60.516 100.534,61.684 100.619,62.24 C 100.808,63.446 101.24,64.577 101.881,65.542 C 102.274,66.131 102.516,66.426 103.059,66.964 C 104.73,68.633 106.625,69.577 108.664,69.759 C 109.045,69.794 110.182,69.779 110.569,69.731 C 112.397,69.52 113.892,68.778 115.088,67.484 C 116.444,66.018 117.065,64.4 117.062,62.322 C 117.055,60.191 116.426,58.426 115.057,56.72 C 114.755,56.346 114.046,55.638 113.653,55.319 C 112.627,54.492 111.519,53.94 110.244,53.62 L 109.844,53.519 L 109.993,53.463 C 110.584,53.239 111.337,52.749 112.426,51.868 C 113.578,50.938 114.252,50.514 114.83,50.347 C 115.113,50.265 115.46,50.293 115.768,50.422 C 116.202,50.605 116.816,51.046 117.493,51.665 L 117.823,51.968 L 117.833,51.571 L 117.842,51.175 L 117.471,50.762 C 116.889,50.104 116.06,49.299 115.747,49.075 C 115.409,48.838 114.975,48.622 114.692,48.549 C 114.419,48.481 113.993,48.503 113.715,48.6 Z M 110.867,54.548 C 111.95,54.778 112.853,55.319 113.584,56.17 C 114.805,57.592 115.255,59.411 114.925,61.608 C 114.556,64.073 113.24,66.284 111.427,67.491 C 110.03,68.418 108.655,68.812 107.295,68.677 C 105.963,68.542 104.837,67.943 103.978,66.918 C 103.26,66.062 102.823,65.051 102.65,63.849 C 102.574,63.345 102.577,62.259 102.65,61.63 C 102.895,59.528 103.673,57.904 105.095,56.515 C 106.351,55.291 107.594,54.654 109.071,54.482 C 109.53,54.429 110.468,54.463 110.867,54.548 Z M 107.543,55.508 C 106.377,55.703 105.407,56.359 104.579,57.513 C 103.67,58.788 103.332,60.283 103.568,61.992 C 103.852,64.028 105.199,66.09 106.855,67.028 C 107.446,67.365 107.969,67.523 108.79,67.62 C 108.997,67.645 109.423,67.638 109.71,67.607 C 110.603,67.509 111.33,67.163 111.953,66.54 C 112.555,65.939 112.961,65.181 113.162,64.273 C 113.238,63.931 113.307,63.415 113.307,63.203 L 113.307,63.109 L 105.218,63.109 L 105.212,62.805 C 105.18,61.444 105.359,60.497 105.838,59.537 C 106.15,58.911 106.681,58.25 107.167,57.884 C 107.45,57.67 107.94,57.431 108.302,57.33 C 108.555,57.261 108.689,57.245 109.137,57.233 C 109.756,57.215 110.102,57.268 110.631,57.466 C 111.475,57.778 112.22,58.304 113.143,59.231 L 113.684,59.779 L 113.684,58.961 L 113.52,58.759 C 112.022,56.941 110.539,55.864 109.086,55.539 C 108.717,55.458 107.938,55.442 107.543,55.508 Z M 111.229,63.798 C 111.229,63.934 111.097,64.529 111.012,64.78 C 110.826,65.335 110.559,65.772 110.191,66.131 C 109.832,66.48 109.473,66.676 108.997,66.776 C 108.711,66.836 108.138,66.833 107.846,66.77 C 106.704,66.527 105.738,65.46 105.407,64.073 C 105.373,63.931 105.343,63.798 105.343,63.78 C 105.343,63.748 105.955,63.739 108.286,63.739 C 111.182,63.739 111.229,63.739 111.229,63.798 Z" stroke-linejoin="miter" stroke="none" fill="#ffffff" stroke-width="0.075" marker-start="none" marker-end="none" stroke-miterlimit="4"/>
 </g>
</svg>
