<?xml version="1.0" standalone="no"?>
<!DOCTYPE svg PUBLIC "-//W3C//DTD SVG 1.1//EN" "http://www.w3.org/Graphics/SVG/1.1/DTD/svg11.dtd">
<!--Generator: Xara Designer (www.xara.com), SVG filter version: 6.6.0.13-->
<svg fill="none" fill-rule="evenodd" stroke="black" stroke-linejoin="bevel" stroke-miterlimit="10" xmlns:xlink="http://www.w3.org/1999/xlink" xmlns="http://www.w3.org/2000/svg" version="1.1" overflow="visible" width="700pt" height="700pt" viewBox="0 -700 700 700">
 <defs>
	</defs>
 <g id="Layer 1" transform="scale(1 -1)" stroke-width="0.501">
  <rect x="10.0" y="10.0" width="689.139" height="699" fill="#7f7f7f" stroke="none" stroke-width="0.775" stroke-linecap="round" stroke-linejoin="miter"/>
  <g id="Group" fill="#000140" fill-rule="nonzero" stroke-linejoin="miter" stroke="none" stroke-width="0.1" stroke-miterlimit="4">
   <path d="M 1,350.5 L 1,1 L 350.5,1 L 700,1 L 700,350.5 L 700,700 L 350.5,700 L 1,700 L 1,350.5 Z M 394,686.4 C 452.1,679.7 499.6,656.1 537.6,615 C 580.7,568.4 600.4,517 600.3,451 C 600.1,383.3 580.1,327.2 536.6,273 C 527,261.1 504.5,238.6 492,228.5 C 459.4,202.2 424.2,184.7 383.7,174.5 L 371,171.3 L 375.7,169.5 C 394.5,162.4 418.4,146.8 453,118.8 C 489.6,89.3 511,75.8 529.4,70.5 C 538.4,67.9 549.4,68.8 559.2,72.9 C 573,78.7 592.5,92.7 614,112.4 L 624.5,122 L 624.8,109.4 L 625.1,96.8 L 613.3,83.7 C 594.8,62.8 568.5,37.2 558.5,30.1 C 547.8,22.6 534,15.7 525,13.4 C 516.3,11.2 502.8,11.9 494,15 C 484.2,18.4 467.9,26.9 454.8,35.3 C 435.8,47.5 421.4,58.4 378.5,93.5 C 331.1,132.2 294.1,158.8 275.8,167.5 C 252.3,178.6 234.4,175.4 206.3,155.4 C 198.3,149.7 181.6,135.3 174.5,128.1 C 171.8,125.3 169.2,123 168.8,123 C 168.4,123 168,128.3 168,134.7 L 168,146.4 L 175.3,155.9 C 179.2,161.2 188,171.1 194.7,178 C 201.4,184.8 206.8,190.5 206.7,190.6 C 206.6,190.7 201,193.4 194.3,196.8 C 187.6,200.1 178.2,205.4 173.3,208.5 C 119,243.7 83.1,305.6 75.9,376.3 C 74.2,393.6 75.2,430.7 77.9,448.4 C 83.9,486.7 97.6,522.6 118,553.3 C 130.5,572 138.2,581.4 155.4,598.5 C 208.5,651.5 268.7,681.5 333.5,687.3 C 345.6,688.4 381.7,687.9 394,686.4 Z" marker-start="none" marker-end="none"/>
   <path d="M 290,652.9 C 247.7,648.6 211.9,629.6 184.6,597 C 161.8,569.8 147.9,537.7 142.4,499.5 C 140,483.5 140.1,449 142.4,429 C 150.2,362.2 174.9,310.6 220.1,266.5 C 260,227.6 299.5,207.4 346.4,201.9 C 361,200.2 390.8,201.3 403.5,204 C 437.9,211.3 466.6,228.5 489.8,255.5 C 528.6,300.7 542.9,358.5 532.4,428.3 C 520.7,506.6 478.9,576.9 421.3,615.2 C 376.9,644.7 333.2,657.2 290,652.9 Z M 366.7,618.9 C 395.1,615.8 418.2,604.8 438,585 C 457.1,565.9 470,541.8 476.4,513 C 478.8,502.1 481,485.7 481,479 L 481,476 L 352.5,476 L 224,476 L 223.8,466.3 C 222.8,423.1 228.5,393 243.7,362.5 C 253.6,342.6 270.5,321.6 285.9,310 C 294.9,303.2 310.5,295.6 322,292.4 C 330,290.2 334.3,289.7 348.5,289.3 C 368.2,288.7 379.2,290.4 396,296.7 C 422.8,306.6 446.5,323.3 475.8,352.8 L 493,370.2 L 493,357.2 L 493,344.2 L 487.8,337.8 C 440.2,280 393.1,245.8 346.9,235.5 C 335.2,232.9 310.4,232.4 297.9,234.5 C 260.8,240.7 230,261.5 203.7,298.2 C 174.8,338.7 164.1,386.2 171.6,440.5 C 180.6,505.2 223.4,570.7 276,600.5 C 294.8,611.2 311.4,616.2 337.5,619.3 C 344.1,620.1 357.6,619.9 366.7,618.9 Z" marker-start="none" marker-end="none"/>
   <path d="M 307.5,592.3 C 271.2,584.6 240.5,550.7 230,506.6 C 228.9,502.1 228,497.9 228,497.3 C 228,496.3 247.4,496 321.5,496 C 413.5,496 415,496 415,497.9 C 415,502.2 410.8,521.1 408.1,529.1 C 402.2,546.7 393.7,560.6 382,572 C 370.6,583.1 359.2,589.3 344.1,592.5 C 335,594.4 316.8,594.3 307.5,592.3 Z" marker-start="none" marker-end="none"/>
  </g>
 </g>
</svg>
