<?xml version="1.0" standalone="no"?>
<!DOCTYPE svg PUBLIC "-//W3C//DTD SVG 1.1//EN" "http://www.w3.org/Graphics/SVG/1.1/DTD/svg11.dtd">
<!--Generator: Xara Designer (www.xara.com), SVG filter version: 6.6.0.13-->
<svg fill="none" fill-rule="evenodd" stroke="black" stroke-linejoin="bevel" stroke-miterlimit="10" font-family="Times New Roman" font-size="16" style="font-variant-ligatures:none" xmlns:xlink="http://www.w3.org/1999/xlink" xmlns="http://www.w3.org/2000/svg" version="1.1" overflow="visible" width="24pt" height="24pt" viewBox="2.04 -69.959 24 24">
 <defs>
	</defs>
 <g id="Layer 1" transform="scale(1 -1)" stroke-width="0.501">
  <g id="Group" fill="#2b2c80" stroke-linejoin="miter" stroke="none" fill-rule="nonzero" stroke-width="0.003" stroke-miterlimit="4">
   <path d="M 2.04,57.96 L 2.04,45.959 L 14.041,45.959 L 26.04,45.959 L 26.04,57.96 L 26.04,69.959 L 14.041,69.959 L 2.04,69.959 L 2.04,57.96 Z M 15.534,69.492 C 17.529,69.262 19.16,68.452 20.464,67.041 C 21.944,65.441 22.621,63.676 22.618,61.41 C 22.61,59.085 21.924,57.159 20.43,55.298 C 20.101,54.89 19.328,54.118 18.899,53.77 C 17.78,52.868 16.571,52.266 15.18,51.916 L 14.744,51.806 L 14.906,51.745 C 15.551,51.501 16.372,50.966 17.56,50.005 C 18.817,48.991 19.552,48.528 20.183,48.346 C 20.492,48.257 20.87,48.287 21.206,48.428 C 21.68,48.627 22.349,49.108 23.088,49.784 L 23.448,50.114 L 23.459,49.681 L 23.469,49.249 L 23.064,48.799 C 22.429,48.081 21.525,47.203 21.183,46.958 C 20.815,46.7 20.341,46.464 20.032,46.385 C 19.734,46.31 19.27,46.334 18.967,46.44 C 18.63,46.557 18.072,46.848 17.622,47.137 C 16.97,47.556 16.475,47.931 15.002,49.135 C 13.374,50.464 12.104,51.378 11.475,51.676 C 10.669,52.057 10.055,51.947 9.09,51.261 C 8.815,51.064 8.241,50.57 7.997,50.323 C 7.905,50.227 7.815,50.148 7.802,50.148 C 7.788,50.148 7.774,50.33 7.774,50.55 L 7.774,50.952 L 8.025,51.278 C 8.158,51.46 8.461,51.799 8.691,52.037 C 8.921,52.27 9.107,52.466 9.103,52.469 C 9.099,52.472 8.908,52.565 8.677,52.682 C 8.447,52.796 8.125,52.978 7.956,53.084 C 6.092,54.292 4.859,56.418 4.612,58.844 C 4.553,59.439 4.587,60.713 4.68,61.32 C 4.886,62.636 5.357,63.869 6.057,64.922 C 6.486,65.565 6.75,65.887 7.342,66.474 C 9.165,68.294 11.232,69.324 13.456,69.523 C 13.872,69.561 15.112,69.544 15.534,69.492 Z" marker-start="none" marker-end="none"/>
   <path d="M 11.963,68.342 C 10.51,68.195 9.281,67.542 8.344,66.423 C 7.561,65.49 7.084,64.387 6.896,63.075 C 6.813,62.526 6.816,61.341 6.896,60.655 C 7.163,58.362 8.012,56.59 9.563,55.075 C 10.933,53.739 12.289,53.045 13.9,52.857 C 14.401,52.799 15.424,52.836 15.86,52.929 C 17.041,53.18 18.026,53.77 18.824,54.698 C 20.156,56.25 20.646,58.234 20.286,60.631 C 19.884,63.32 18.448,65.732 16.471,67.048 C 14.947,68.06 13.447,68.49 11.963,68.342 Z M 14.597,67.175 C 15.572,67.068 16.365,66.691 17.044,66.011 C 17.701,65.355 18.144,64.528 18.363,63.538 C 18.446,63.165 18.521,62.602 18.521,62.371 L 18.521,62.268 L 14.109,62.268 L 9.697,62.268 L 9.691,61.936 C 9.656,60.452 9.851,59.419 10.373,58.371 C 10.714,57.688 11.293,56.967 11.823,56.568 C 12.132,56.335 12.667,56.074 13.062,55.964 C 13.337,55.889 13.484,55.871 13.972,55.858 C 14.648,55.838 15.025,55.896 15.602,56.112 C 16.523,56.452 17.336,57.026 18.342,58.038 L 18.933,58.635 L 18.933,58.19 L 18.933,57.743 L 18.754,57.523 C 17.12,55.539 15.502,54.365 13.917,54.01 C 13.514,53.922 12.664,53.904 12.234,53.976 C 10.961,54.189 9.903,54.904 9,56.163 C 8.008,57.554 7.64,59.185 7.897,61.05 C 8.207,63.271 9.676,65.52 11.483,66.543 C 12.128,66.911 12.698,67.083 13.594,67.189 C 13.82,67.216 14.284,67.209 14.597,67.175 Z" marker-start="none" marker-end="none"/>
   <path d="M 12.564,66.262 C 11.318,65.997 10.264,64.833 9.903,63.32 C 9.866,63.165 9.834,63.02 9.834,63 C 9.834,62.965 10.501,62.955 13.044,62.955 C 16.203,62.955 16.254,62.955 16.254,63.02 C 16.254,63.168 16.111,63.817 16.018,64.091 C 15.815,64.696 15.524,65.173 15.122,65.565 C 14.731,65.945 14.339,66.159 13.82,66.268 C 13.508,66.334 12.883,66.331 12.564,66.262 Z" marker-start="none" marker-end="none"/>
  </g>
 </g>
</svg>
