<?xml version="1.0" standalone="no"?>
<!DOCTYPE svg PUBLIC "-//W3C//DTD SVG 1.1//EN" "http://www.w3.org/Graphics/SVG/1.1/DTD/svg11.dtd">
<!--Generator: Xara Designer (www.xara.com), SVG filter version: 6.6.0.7-->
<svg fill="none" fill-rule="evenodd" stroke="black" stroke-width="0.501" stroke-linejoin="bevel" stroke-miterlimit="10" font-family="Times New Roman" font-size="16" style="font-variant-ligatures:none" xmlns:xlink="http://www.w3.org/1999/xlink" xmlns="http://www.w3.org/2000/svg" version="1.1" overflow="visible" width="311.812pt" height="311.812pt" viewBox="0 -311.812 311.812 311.812">
 <defs>
	</defs>
 <g id="Layer 1" transform="scale(1 -1)">
  <rect x="0.448" y="0.556" width="311.667" height="311.527" fill="#2b5797" stroke="#000140" stroke-width="0.5" stroke-linecap="round" stroke-linejoin="miter"/>
  <g id="Group" fill="#cccccc" fill-rule="nonzero" stroke-linejoin="round" stroke-linecap="round" stroke="none" stroke-width="8.957">
   <g id="Group_1">
    <path d="M 278.469,43.405 C 267.62,31.036 260.156,23.043 256.075,19.431 C 245.574,9.979 236.128,5.258 227.727,5.258 C 217.813,5.258 200.722,15.291 176.46,35.351 C 149.635,57.632 131.321,70.986 121.521,75.419 C 118.137,76.932 114.818,77.694 111.553,77.694 C 102.455,77.694 90.321,69.996 75.157,54.601 L 75.157,65.447 C 80.642,73.145 86.474,79.621 92.655,84.871 C 73.759,92.684 59.062,105.34 48.561,122.835 C 38.412,139.63 33.338,158.528 33.342,179.525 C 33.338,225.252 54.567,261.648 97.03,288.707 C 115.808,300.606 136.92,306.554 160.364,306.554 C 200.374,306.554 230.99,290.164 252.223,257.387 C 262.37,241.522 267.447,222.684 267.447,200.871 C 267.447,170.895 257.647,144.125 238.049,120.559 C 218.455,96.999 193.904,82.244 164.392,76.296 C 173.026,74.195 185.911,66.028 203.057,51.799 C 220.202,37.567 232.917,30.455 241.199,30.455 C 249.48,30.455 261.903,38.502 278.469,54.601 L 278.469,43.405 Z M 238.749,170.95 C 238.749,191.947 234.087,211.895 224.756,230.791 C 214.842,250.739 201.31,265.957 184.16,276.458 C 167.95,286.372 152.377,291.33 137.446,291.33 C 114.818,291.33 96.442,282.994 82.329,266.311 C 69.031,250.564 62.386,231.2 62.386,208.221 C 62.386,164.361 79.183,130.299 112.777,106.038 C 128.29,94.84 145.435,89.241 164.217,89.241 C 186.26,89.241 204.341,97.468 218.455,113.916 C 231.986,129.548 238.749,148.559 238.749,170.95 Z" marker-start="none" marker-end="none"/>
   </g>
  </g>
  <g id="Group_2" fill="#cccccc" fill-rule="nonzero" stroke-linejoin="round" stroke-linecap="round" stroke="none" stroke-width="9.085">
   <g id="Group_3">
    <path d="M 219.537,153.413 C 193.156,120.294 167.431,103.735 142.351,103.735 C 123.187,103.735 107.037,112.073 93.909,128.753 C 81.604,144.127 75.457,161.635 75.457,181.274 C 75.457,204.697 82.906,225.991 97.816,245.15 C 113.901,265.737 133.362,276.028 156.191,276.023 C 173.699,276.028 187.831,269.639 198.597,256.859 C 208.413,244.913 213.622,229.948 214.212,211.97 L 99.764,211.97 C 99.527,207.357 99.411,203.986 99.411,201.856 C 99.411,182.929 104.2,166.43 113.785,152.349 C 124.666,136.384 139.157,128.4 157.256,128.395 C 177.6,128.4 198.359,140.644 219.537,165.128 L 219.537,153.413 Z M 185.111,220.843 C 183.813,233.027 180.028,243.141 173.755,251.181 C 166.426,260.291 156.963,264.849 145.365,264.849 C 133.892,264.849 123.955,260.291 115.556,251.181 C 107.869,242.783 103.14,232.668 101.364,220.843 L 185.111,220.843 Z" marker-start="none" marker-end="none"/>
   </g>
  </g>
 </g>
</svg>
